<svg width="24" height="19" viewBox="0 0 24 19" fill="none" xmlns="http://www.w3.org/2000/svg">
<path d="M20.3303 1.52336C18.7535 0.801448 17.0888 0.289302 15.3789 0C15.1449 0.418288 14.9332 0.848649 14.7446 1.28929C12.9232 1.01482 11.071 1.01482 9.24961 1.28929C9.06095 0.848695 8.84924 0.418338 8.61535 0C6.90433 0.291745 5.2386 0.805107 3.66019 1.52713C0.526644 6.16327 -0.322811 10.6843 0.101917 15.1411C1.937 16.4969 3.99098 17.5281 6.17458 18.1897C6.66626 17.5284 7.10134 16.8268 7.47519 16.0925C6.76511 15.8273 6.07975 15.5001 5.42706 15.1146C5.59884 14.9901 5.76684 14.8617 5.92918 14.7371C7.82837 15.6303 9.90124 16.0933 12 16.0933C14.0987 16.0933 16.1715 15.6303 18.0707 14.7371C18.235 14.8711 18.403 14.9995 18.5729 15.1146C17.9189 15.5007 17.2323 15.8285 16.5209 16.0944C16.8943 16.8284 17.3294 17.5293 17.8216 18.1897C20.007 17.5307 22.0626 16.5001 23.898 15.143C24.3963 9.9745 23.0467 5.49503 20.3303 1.52336ZM8.01318 12.4002C6.82961 12.4002 5.85179 11.3261 5.85179 10.0047C5.85179 8.68332 6.79563 7.5998 8.0094 7.5998C9.22318 7.5998 10.1934 8.68332 10.1727 10.0047C10.1519 11.3261 9.21941 12.4002 8.01318 12.4002ZM15.9867 12.4002C14.8013 12.4002 13.8272 11.3261 13.8272 10.0047C13.8272 8.68332 14.7711 7.5998 15.9867 7.5998C17.2024 7.5998 18.1651 8.68332 18.1444 10.0047C18.1236 11.3261 17.193 12.4002 15.9867 12.4002Z" fill="white"/>
</svg>
