<svg width="40" height="40" viewBox="0 0 40 40" fill="none" xmlns="http://www.w3.org/2000/svg">
<rect width="40" height="40" rx="20" fill="white"/>
<g clip-path="url(#clip0_56700_147)">
<path d="M26.9309 13.6415C25.6342 13.0463 24.2658 12.6219 22.86 12.3788C22.8472 12.3765 22.834 12.3782 22.8222 12.3837C22.8105 12.3893 22.8008 12.3984 22.7945 12.4098C22.6187 12.7225 22.424 13.1304 22.2876 13.451C20.7504 13.2208 19.221 13.2208 17.7153 13.451C17.5789 13.1233 17.3771 12.7225 17.2005 12.4098C17.194 12.3986 17.1842 12.3897 17.1726 12.3842C17.1609 12.3787 17.1478 12.3768 17.1351 12.3788C15.7066 12.6249 14.3397 13.0558 13.0641 13.6415C13.053 13.6462 13.0437 13.6543 13.0373 13.6645C10.4445 17.5381 9.73421 21.3166 10.0826 25.0481C10.0842 25.0664 10.0945 25.0838 10.1087 25.0949C11.8193 26.3512 13.4764 27.1139 15.1027 27.6194C15.1154 27.6232 15.1289 27.623 15.1414 27.6189C15.1539 27.6148 15.1649 27.607 15.1729 27.5964C15.5576 27.0711 15.9005 26.5171 16.1945 25.9346C16.2119 25.9005 16.1953 25.86 16.1598 25.8465C15.6159 25.6402 15.098 25.3886 14.5997 25.1029C14.5603 25.0799 14.5571 25.0235 14.5934 24.9965C14.6986 24.918 14.8019 24.837 14.9033 24.7537C14.9122 24.7464 14.9229 24.7417 14.9344 24.7401C14.9458 24.7386 14.9574 24.7402 14.9679 24.7449C18.241 26.2394 21.7846 26.2394 25.0191 24.7449C25.0296 24.7399 25.0414 24.738 25.053 24.7394C25.0645 24.7408 25.0755 24.7455 25.0845 24.7529C25.186 24.8366 25.2896 24.9179 25.3951 24.9965C25.4314 25.0235 25.429 25.0799 25.3896 25.1029C24.8914 25.3941 24.3735 25.6401 23.8287 25.8457C23.8204 25.8489 23.8127 25.8538 23.8064 25.8602C23.8001 25.8665 23.7951 25.8742 23.7919 25.8825C23.7887 25.8909 23.7873 25.8999 23.7879 25.9089C23.7884 25.9178 23.7908 25.9266 23.7949 25.9346C24.0952 26.5163 24.4382 27.0702 24.8157 27.5956C24.8315 27.6178 24.8599 27.6274 24.8859 27.6194C26.5201 27.1139 28.1772 26.3512 29.8878 25.0949C29.8952 25.0895 29.9013 25.0826 29.9058 25.0747C29.9103 25.0668 29.913 25.058 29.9139 25.0489C30.3309 20.7348 29.2154 16.9873 26.9568 13.6653C26.9513 13.6545 26.9421 13.6461 26.9309 13.6415ZM16.6834 22.776C15.698 22.776 14.886 21.8713 14.886 20.7602C14.886 19.6491 15.6822 18.7444 16.6834 18.7444C17.6924 18.7444 18.4966 19.6571 18.4808 20.7602C18.4808 21.8713 17.6845 22.776 16.6834 22.776ZM23.329 22.776C22.3436 22.776 21.5316 21.8713 21.5316 20.7602C21.5316 19.6491 22.3278 18.7444 23.329 18.7444C24.338 18.7444 25.1421 19.6571 25.1264 20.7602C25.1264 21.8713 24.3381 22.776 23.329 22.776Z" fill="#F7630C"/>
</g>
<defs>
<clipPath id="clip0_56700_147">
<rect width="20" height="20" fill="white" transform="translate(10 10)"/>
</clipPath>
</defs>
</svg>
