<svg width="22" height="19" viewBox="0 0 22 19" fill="none" xmlns="http://www.w3.org/2000/svg">
<path d="M1.51239 8.61673C7.41795 6.04377 11.3559 4.34751 13.3263 3.52797C18.9521 1.18799 20.1211 0.781518 20.883 0.767952C21.0506 0.765143 21.4253 0.806675 21.668 1.00362C21.873 1.16992 21.9294 1.39456 21.9563 1.55223C21.9833 1.70989 22.0169 2.06906 21.9902 2.34971C21.6854 5.55295 20.3662 13.3264 19.6951 16.9141C19.4111 18.4321 18.852 18.9411 18.3107 18.991C17.1343 19.0992 16.2409 18.2135 15.1015 17.4666C13.3186 16.2979 12.3113 15.5703 10.5807 14.4298C8.58058 13.1118 9.87715 12.3874 11.017 11.2035C11.3153 10.8937 16.4986 6.17908 16.5989 5.75139C16.6115 5.6979 16.6231 5.49852 16.5046 5.39324C16.3862 5.28795 16.2114 5.32396 16.0852 5.35259C15.9064 5.39318 13.0581 7.27579 7.54035 11.0004C6.73187 11.5556 5.99958 11.8261 5.34347 11.8119C4.62016 11.7963 3.2288 11.4029 2.19447 11.0667C0.925826 10.6543 -0.0824702 10.4363 0.0053297 9.73594C0.0510613 9.37115 0.553413 8.99808 1.51239 8.61673Z" fill="white"/>
</svg>
