<?xml version="1.0" standalone="no"?>
<!DOCTYPE svg PUBLIC "-//W3C//DTD SVG 1.1//EN" "http://www.w3.org/Graphics/SVG/1.1/DTD/svg11.dtd" >
<svg xmlns="http://www.w3.org/2000/svg">
<metadata>Generated by IcoMoon</metadata>
<defs>
<font id="ordinal" horiz-adv-x="1024">
<font-face units-per-em="1024" ascent="960" descent="-64" />
<missing-glyph horiz-adv-x="1024" />
<glyph unicode="&#x20;" horiz-adv-x="512" d="" />
<glyph unicode="&#xe900;" glyph-name="close" d="M977.958 49.965c4.461-4.461 8-9.754 10.413-15.584 2.413-5.824 3.654-12.070 3.654-18.374 0-6.31-1.242-12.557-3.654-18.381s-5.952-11.123-10.413-15.584c-4.461-4.454-9.754-7.994-15.578-10.406-5.83-2.413-12.077-3.654-18.381-3.654-6.31 0-12.55 1.242-18.381 3.654-5.824 2.413-11.123 5.952-15.578 10.406l-398.042 398.103-398.040-398.103c-9.007-9.005-21.222-14.061-33.96-14.061s-24.953 5.056-33.96 14.061c-9.007 9.011-14.067 21.222-14.067 33.965 0 12.736 5.060 24.954 14.067 33.958l398.1 398.040-398.1 398.040c-9.007 9.007-14.067 21.222-14.067 33.96s5.060 24.953 14.067 33.96c9.007 9.007 21.223 14.067 33.96 14.067s24.953-5.060 33.96-14.067l398.040-398.1 398.042 398.1c9.005 9.007 21.222 14.067 33.958 14.067s24.954-5.060 33.958-14.067c9.005-9.007 14.067-21.223 14.067-33.96s-5.062-24.953-14.067-33.96l-398.099-398.040 398.099-398.040z" />
<glyph unicode="&#xe901;" glyph-name="search" d="M733.44 299.571l275.456-275.456c9.682-9.687 15.119-22.825 15.114-36.521-0.005-13.701-5.453-26.834-15.14-36.516s-22.825-15.119-36.521-15.114c-13.701 0.005-26.834 5.453-36.516 15.14l-275.456 275.456c-82.345-63.78-185.892-93.793-289.58-83.932-103.688 9.856-199.726 58.844-268.577 136.996s-105.343 179.599-102.053 283.703c3.29 104.103 46.116 203.043 119.765 276.692s172.589 116.474 276.692 119.764c104.103 3.29 205.55-33.202 283.701-102.053s127.14-164.889 137.001-268.577c9.856-103.688-20.157-207.236-83.937-289.581h0.051zM409.601 243.2c81.475 0 159.61 32.369 217.226 89.979 57.61 57.61 89.974 135.747 89.974 217.222s-32.364 159.612-89.974 217.223c-57.615 57.611-135.751 89.977-217.226 89.977s-159.612-32.366-217.223-89.977c-57.611-57.611-89.977-135.749-89.977-217.223s32.366-159.611 89.977-217.222c57.611-57.61 135.749-89.979 217.223-89.979z" />
<glyph unicode="&#xe902;" glyph-name="airdrop" d="M988.16 422.395l-184.32 168.96 184.32 148.48c5.12 0 5.12 5.12 5.12 5.12 5.12 10.24 0 25.6-10.24 35.84l-256 138.24c-10.24 5.12-20.48 5.12-25.6 0l-189.442-143.36-189.44 143.36c-10.24 5.12-20.48 5.12-25.6 0l-256-138.24c-5.12 0-5.12-5.12-5.12-5.12-15.36-5.12-10.24-25.6 0-30.72l184.32-148.48-184.32-168.96-5.12-5.12c-5.12-10.24 0-25.6 10.24-35.84l189.44-102.4v-128c0-10.24 5.12-15.36 10.24-20.48l256-153.6c5.12 0 10.24-5.12 15.36-5.12 5.122 0 10.242 0 15.362 5.12l256 153.6c10.24 5.12 10.24 15.36 10.24 20.48v128l189.44 102.4 5.12 5.12c15.36 5.12 10.24 20.48 0 30.72zM716.8 872.955l209.92-112.64-158.72-138.24-209.92 122.88 158.72 128zM721.92 591.355l-209.922-138.24-209.92 138.24 209.92 122.88 209.922-122.88zM97.278 760.315l209.92 112.64 163.84-122.88-215.040-128-158.72 138.24zM97.278 412.155l163.84 153.6 209.92-138.24-163.84-133.12-209.92 117.76zM742.4 161.275l-230.402-138.24-230.4 138.24v87.040l15.36-5.12h10.24c5.12 0 10.24 0 15.36 5.12l189.44 148.48 189.442-148.48c5.12-5.12 10.24-5.12 15.36-5.12s10.24 0 10.24 5.12l15.36 5.12v-92.16zM716.8 294.395l-163.84 128 209.92 138.24 163.84-153.6-209.92-112.64z" />
<glyph unicode="&#xe903;" glyph-name="ido" d="M512 690.499c14.294 0 28.002 5.678 38.11 15.785s15.785 23.816 15.785 38.11c0 14.293-5.678 28.002-15.785 38.109s-23.816 15.786-38.11 15.786c-14.294 0-28.002-5.678-38.11-15.786s-15.785-23.816-15.785-38.109c0-14.294 5.678-28.002 15.785-38.11s23.816-15.785 38.11-15.785zM548.271 947.954c-10.476 7.82-23.198 12.046-36.271 12.046s-25.796-4.225-36.271-12.046l-429.649-320.727c-36.379-27.136-17.165-84.938 28.187-84.938h33.523v-323.503c-24.191-11.474-44.629-29.577-58.94-52.208s-21.905-48.856-21.902-75.63v-94.316c0-18.594 15.091-33.684 33.684-33.684h902.737c18.594 0 33.684 15.091 33.684 33.684v94.316c0.005 26.775-7.594 53-21.903 75.63s-34.746 40.734-58.939 52.208v323.53h33.523c45.379 0 64.566 57.802 28.214 84.938l-429.676 320.7zM848.842 232.421h-121.263v309.895h121.263v-309.895zM660.211 232.421h-114.526v309.895h114.526v-309.895zM478.316 232.421h-114.526v309.895h114.526v-309.895zM296.421 232.421h-121.263v309.895h121.263v-309.895zM135.114 609.657l376.886 281.331 376.859-281.331h-753.745zM94.316 90.92c0 19.655 7.808 38.502 21.705 52.402 13.897 13.894 32.746 21.703 52.4 21.703h687.158c19.655 0 38.502-7.809 52.402-21.703 13.894-13.899 21.703-32.746 21.703-52.402v-60.632h-835.368v60.632z" />
<glyph unicode="&#xe904;" glyph-name="pools" d="M623.053 926.079c-35.179 14.71-72.923 22.285-111.053 22.285s-75.877-7.575-111.054-22.286zM623.053 926.079c207.607-86.647 342.765-292.927 342.765-521.268v-12.335c0-244.936-194.327-444.835-435.759-444.835h-36.166c-241.387 0-435.712 199.903-435.712 444.835v12.335c0 228.344 135.212 434.62 342.764 521.267zM512 878.545c-28.887 0-57.485-5.74-84.134-16.888-180.911-75.52-299.866-255.954-299.866-456.847v-12.335c0-207.863 164.541-375.017 365.894-375.017h36.166c201.402 0 365.94 167.154 365.94 375.017v12.335c0 200.897-118.886 381.317-299.841 456.836-26.647 11.147-55.273 16.899-84.159 16.899zM515.053 729.095c8.099-17.496 0.484-38.245-17.013-46.345-71.897-33.284-130.013-100.943-156.856-185.875-5.81-18.384-25.423-28.577-43.806-22.768-18.384 5.814-28.576 25.425-22.766 43.809 32.176 101.808 102.713 185.888 194.097 228.193 17.496 8.1 38.245 0.483 46.344-17.013z" />
<glyph unicode="&#xe905;" glyph-name="swap" d="M819.2 857.6l-204.8-204.8h153.6v-409.6c0-27.156-10.788-53.202-29.993-72.407s-45.251-29.993-72.407-29.993c-27.156 0-53.202 10.788-72.407 29.993s-29.993 45.251-29.993 72.407v409.6c0 54.317-21.576 106.408-59.984 144.816-38.408 38.407-90.499 59.984-144.816 59.984s-106.408-21.577-144.816-59.984c-38.407-38.408-59.984-90.499-59.984-144.816v-409.6h-153.6l204.8-204.8 204.8 204.8h-153.6v409.6c0 27.158 10.788 53.204 29.992 72.408s45.25 29.992 72.408 29.992c27.158 0 53.204-10.788 72.408-29.992s29.992-45.25 29.992-72.408v-409.6c0-54.318 21.577-106.409 59.986-144.814 38.405-38.41 90.496-59.986 144.814-59.986s106.409 21.576 144.814 59.986c38.41 38.405 59.986 90.496 59.986 144.814v409.6h153.6l-204.8 204.8z" />
<glyph unicode="&#xe906;" glyph-name="two-arrow" d="M809.37 35c-4.403-5.35-9.938-9.661-16.205-12.616-6.272-2.954-13.117-4.475-20.045-4.465-6.031-0.036-12.001 1.142-17.567 3.466-5.56 2.324-10.598 5.74-14.812 10.051l-184.566 184.812c-8.632 8.643-13.476 20.352-13.476 32.563s4.844 23.926 13.476 32.563c4.27 4.291 9.344 7.69 14.93 10.010 5.591 2.324 11.581 3.517 17.633 3.517 6.047 0 12.042-1.193 17.628-3.517 5.591-2.319 10.665-5.719 14.935-10.010l105.738-106.414v657.040c0 12.221 4.854 23.942 13.496 32.583s20.362 13.496 32.584 13.496c12.221 0 23.941-4.855 32.584-13.496 8.637-8.642 13.496-20.363 13.496-32.583v-656.425l105.8 105.554c4.265 4.28 9.339 7.675 14.92 9.989s11.566 3.507 17.613 3.507c6.042 0 12.027-1.193 17.608-3.507 5.586-2.314 10.655-5.709 14.925-9.989 8.627-8.637 13.476-20.352 13.476-32.563s-4.849-23.921-13.476-32.563l-180.695-181.002zM287.128 861c-4.402 5.352-9.936 9.661-16.205 12.615s-13.115 4.479-20.044 4.466c-6.028 0.035-12.001-1.143-17.564-3.466s-10.601-5.74-14.815-10.051l-184.505-184.811c-8.629-8.64-13.476-20.352-13.476-32.563s4.847-23.923 13.476-32.563c4.27-4.287 9.345-7.69 14.933-10.011s11.579-3.516 17.63-3.516c6.051 0 12.043 1.194 17.631 3.516s10.663 5.724 14.932 10.011l105.677 106.353v-656.978c0-12.221 4.855-23.941 13.497-32.584s20.362-13.496 32.584-13.496c12.221 0 23.942 4.854 32.583 13.496s13.496 20.362 13.496 32.584v656.425l105.8-105.554c4.269-4.278 9.339-7.672 14.922-9.989s11.567-3.508 17.611-3.508c6.044 0 12.028 1.192 17.61 3.508s10.653 5.71 14.922 9.989c8.629 8.64 13.476 20.352 13.476 32.563s-4.847 23.923-13.476 32.563l-180.695 181.002z" />
<glyph unicode="&#xe907;" glyph-name="arrow-down" d="M572.34 174.327c-33.325-33.324-87.355-33.324-120.68 0l-426.666 426.667c-33.325 33.325-33.325 87.355 0 120.68s87.355 33.325 120.68 0l366.327-366.327 366.327 366.327c33.323 33.325 87.356 33.325 120.678 0s33.323-87.355 0-120.68l-426.666-426.667z" />
<glyph unicode="&#xe908;" glyph-name="logout" d="M153.6 857.6h204.8c28.277 0 51.2 22.923 51.2 51.2s-22.923 51.2-51.2 51.2h-204.8c-40.737 0-79.806-16.183-108.612-44.988s-44.988-67.874-44.988-108.612v-716.8c0-40.74 16.183-79.805 44.988-108.611s67.874-44.989 108.612-44.989h204.8c28.277 0 51.2 22.922 51.2 51.2s-22.923 51.2-51.2 51.2h-204.8c-13.579 0-26.602 5.396-36.204 14.996s-14.996 22.625-14.996 36.204v716.8c0 13.579 5.394 26.602 14.996 36.204s22.625 14.996 36.204 14.996zM680.596 740.204c-19.994-19.995-19.994-52.413 0-72.408l168.596-168.596h-490.793c-28.277 0-51.2-22.923-51.2-51.2s22.923-51.2 51.2-51.2h490.793l-168.596-168.596c-19.994-19.994-19.994-52.413 0-72.407s52.413-19.994 72.407 0l256 256c19.994 19.994 19.994 52.412 0 72.408l-256 256c-19.994 19.995-52.413 19.995-72.407 0z" />
<glyph unicode="&#xe909;" glyph-name="copy" d="M192 864c-53.019 0-96-42.981-96-96v-320c0-53.018 42.981-96 96-96h320c53.018 0 96 42.982 96 96v320c0 53.019-42.982 96-96 96h-320zM32 768c0 88.366 71.634 160 160 160h320c88.367 0 160-71.634 160-160v-320c0-88.367-71.633-160-160-160h-320c-88.366 0-160 71.633-160 160v320zM512 544c-25.463 0-49.882-10.114-67.883-28.117-18.004-18.005-28.119-42.423-28.119-67.883 0-17.673-14.327-32-32-32s-32 14.327-32 32c0 42.436 16.857 83.132 46.863 113.137s70.702 46.863 113.138 46.863c17.673 0 32-14.327 32-32s-14.327-32-32-32zM831.996 544c25.463 0 49.882-10.114 67.883-28.117 18.005-18.005 28.117-42.423 28.117-67.883 0-17.673 14.327-32 32-32 17.677 0 32 14.327 32 32 0 42.436-16.853 83.132-46.861 113.137s-70.703 46.863-113.139 46.863c-17.673 0-32-14.327-32-32s14.327-32 32-32zM831.996 32.004c25.463 0 49.882 10.112 67.883 28.117 18.005 18.001 28.117 42.419 28.117 67.883 0 17.673 14.327 32 32 32 17.677 0 32-14.327 32-32 0-42.436-16.853-83.132-46.861-113.139s-70.703-46.861-113.139-46.861c-17.673 0-32 14.323-32 32 0 17.673 14.327 32 32 32zM512 32.004c-25.463 0-49.882 10.112-67.883 28.117-18.004 18.001-28.119 42.419-28.119 67.883 0 17.673-14.327 32-32 32s-32-14.327-32-32c0-42.436 16.857-83.132 46.863-113.139s70.702-46.861 113.138-46.861c17.673 0 32 14.323 32 32 0 17.673-14.327 32-32 32zM607.996 0.004c0 17.673 14.327 32 32 32h64c17.673 0 32-14.327 32-32 0-17.677-14.327-32-32-32h-64c-17.673 0-32 14.323-32 32zM607.996 576c0 17.673 14.327 32 32 32h64c17.673 0 32-14.327 32-32s-14.327-32-32-32h-64c-17.673 0-32 14.327-32 32zM383.999 352.004c17.673 0 32-14.327 32-32v-64c0-17.673-14.327-32-32-32s-32 14.327-32 32v64c0 17.673 14.327 32 32 32zM959.996 352.004c17.677 0 32-14.327 32-32v-64c0-17.673-14.323-32-32-32-17.673 0-32 14.327-32 32v64c0 17.673 14.327 32 32 32z" />
<glyph unicode="&#xe90a;" glyph-name="wallet" d="M57.788 863.812c28.806 28.806 67.874 44.988 108.612 44.988h691.2c40.74 0 79.805-16.183 108.611-44.988s44.989-67.874 44.989-108.612v-614.4c0-40.735-16.184-79.805-44.989-108.611s-67.871-44.989-108.611-44.989h-691.2c-40.737 0-79.806 16.184-108.612 44.989s-44.988 67.876-44.988 108.611v614.4c0 40.737 16.183 79.806 44.988 108.612zM89.6 734.622c23.152 13.366 49.604 20.578 76.8 20.578h691.2c27.197 0 53.647-7.213 76.8-20.578v20.578c0 20.368-8.090 39.903-22.492 54.306s-33.94 22.494-54.308 22.494h-691.2c-20.368 0-39.903-8.092-54.306-22.494s-22.494-33.937-22.494-54.306v-20.578zM934.4 601.6c0 20.368-8.090 39.903-22.492 54.306s-33.94 22.494-54.308 22.494h-691.2c-20.368 0-39.903-8.092-54.306-22.494s-22.494-33.937-22.494-54.306v-20.578c23.152 13.366 49.604 20.578 76.8 20.578h192c21.208 0 38.4-17.192 38.4-38.4 0-30.553 12.137-59.854 33.741-81.459s50.906-33.741 81.459-33.741c30.551 0 59.853 12.137 81.459 33.741 21.601 21.604 33.741 50.906 33.741 81.459 0 21.208 17.193 38.4 38.4 38.4h192c27.197 0 53.647-7.213 76.8-20.578v20.578zM934.4 448c0 20.368-8.090 39.903-22.492 54.306s-33.94 22.494-54.308 22.494h-157.481c-7.47-36.612-25.539-70.546-52.352-97.364-36.009-36.006-84.844-56.236-135.767-56.236-50.921 0-99.758 20.229-135.764 56.236-26.818 26.818-44.883 60.752-52.357 97.364h-157.478c-20.368 0-39.903-8.092-54.306-22.494s-22.494-33.937-22.494-54.306v-307.2c0-20.367 8.092-39.905 22.494-54.308s33.937-22.492 54.306-22.492h691.2c20.367 0 39.905 8.090 54.308 22.492s22.492 33.94 22.492 54.308v307.2z" />
<glyph unicode="&#xe90b;" d="M512 960c-135.761 0-266.080-53.976-362-149.96-96.019-96.022-149.973-226.247-150-362.040 0-135.735 54-266.057 150-362.039 95.92-95.985 226.239-149.961 362-149.961s266.080 53.975 362.001 149.961c96 95.983 149.999 226.304 149.999 362.039s-53.999 266.057-149.999 362.040c-95.921 95.984-226.24 149.96-362.001 149.96z" />
<glyph unicode="&#xe90c;" d="M231.759 453.408c149.28 65.024 248.8 107.898 298.56 128.608 142.24 59.145 171.759 69.417 191.040 69.764 4.239 0.068 13.679-0.979 19.84-5.958 5.12-4.201 6.56-9.882 7.279-13.869 0.64-3.985 1.521-13.065 0.8-20.151-7.68-80.96-41.039-277.425-57.999-368.105-7.121-38.368-21.28-51.232-34.961-52.489-29.76-2.735-52.32 19.648-81.12 38.519-45.039 29.545-70.479 47.93-114.24 76.753-50.56 33.312-17.76 51.625 11.040 81.545 7.52 7.831 138.56 126.991 141.041 137.798 0.32 1.353 0.64 6.394-2.4 9.050-2.961 2.662-7.36 1.751-10.56 1.030-4.561-1.024-76.48-48.608-216-142.743-20.401-14.031-38.88-20.873-55.52-20.512-18.24 0.393-53.44 10.336-79.601 18.833-32 10.423-57.519 15.936-55.279 33.638 1.12 9.216 13.84 18.65 38.080 28.288z" />
<glyph unicode="&#xe90d;" d="M512 960c282.77 0 512-229.23 512-512s-229.23-512-512-512c-282.77 0-512 229.23-512 512s229.23 512 512 512z" />
<glyph unicode="&#xe90e;" d="M512 960c283.063 0 512-228.937 512-512s-228.937-512-512-512c-283.063 0-512 228.937-512 512s228.937 512 512 512zM418.377 178.103c226.743 0 351.087 187.977 351.087 351.085v16.092c24.137 17.555 45.348 39.497 61.44 64.365-21.943-9.508-46.080-16.090-70.948-19.748 25.6 15.36 45.348 39.499 54.125 68.023-24.137-13.897-50.468-24.137-78.263-29.988-22.673 24.137-54.857 38.765-89.965 38.765-68.023 0-123.612-55.588-123.612-123.612 0-9.508 0.732-19.017 3.657-27.793-102.4 5.12-193.828 54.125-254.537 128.732-10.24-18.287-16.823-39.499-16.823-62.172 0-42.423 21.943-80.457 54.859-102.4-20.48 0-39.499 5.852-55.59 15.36v-1.463c0-59.977 42.423-109.713 98.743-121.417-10.24-2.927-21.212-4.388-32.183-4.388-8.045 0-15.36 0.732-23.405 2.193 15.36-49.005 61.44-84.845 114.835-85.577-42.423-32.915-95.819-52.663-153.6-52.663-10.24 0-19.75 0-29.259 1.463 54.127-35.108 119.223-55.588 188.708-55.588z" />
<glyph unicode="&#xe90f;" d="M512 960c282.77 0 512-229.23 512-512s-229.23-512-512-512c-282.77 0-512 229.23-512 512s229.23 512 512 512z" />
<glyph unicode="&#xe910;" d="M375.253 230.976c-19.341-28.215-40.060-55.462-62.080-81.643-157.44 4.48-217.173 106.667-217.173 106.667 2.238 144.787 37.324 287.177 102.613 416.427 57.391 44.898 127.319 70.842 200.107 74.24l21.333-49.28c30.47 4.23 61.186 6.441 91.947 6.613 30.899-0.102 61.756-2.24 92.373-6.4l21.333 49.28c72.858-3.582 142.795-29.754 200.107-74.88 65.079-129.156 100.017-271.39 102.187-416 0 0-59.733-102.187-217.173-106.667-21.687 26.054-42.050 53.182-61.013 81.28zM787.627 292.48c-81.92-41.493-161.195-82.987-275.627-82.987s-193.707 41.493-275.627 82.987z" />
<glyph unicode="&#xe911;" d="M380.738 328.96c39.469 0 71.467 31.996 71.467 71.467 0 39.469-31.998 71.467-71.467 71.467-39.471 0-71.467-31.998-71.467-71.467 0-39.471 31.996-71.467 71.467-71.467z" />
<glyph unicode="&#xe912;" d="M643.264 328.96c39.469 0 71.467 31.996 71.467 71.467 0 39.469-31.998 71.467-71.467 71.467-39.471 0-71.467-31.998-71.467-71.467 0-39.471 31.996-71.467 71.467-71.467z" />
<glyph unicode="&#xe92a;" glyph-name="menu-bars" d="M128 789.333h768v-85.333h-768v85.333zM128 490.667h768v-85.333h-768v85.333zM128 192h768v-85.333h-768v85.333z" />
<glyph unicode="&#xe92b;" glyph-name="menu-close" d="M102.395 930.013l409.6-409.6 409.599 409.6 72.407-72.408-409.6-409.6 409.6-409.599-72.407-72.407-409.599 409.6-409.6-409.6-72.408 72.407 409.6 409.599-409.6 409.6 72.408 72.408z" />
</font>
</defs>
</svg>
