<svg width="128" height="38" viewBox="0 0 128 38" fill="none" xmlns="http://www.w3.org/2000/svg">
<g clip-path="url(#clip0_395_6)">
<path d="M3.39606 17.555L0.485317 14.6442C0.174263 14.3332 -0.000488242 13.9113 -0.000488281 13.4714C-0.000488319 13.0315 0.174261 12.6096 0.485317 12.2986L11.7981 0.985805C12.1091 0.674749 12.531 0.5 12.9709 0.5C13.4108 0.5 13.8327 0.674749 14.1438 0.985804L25.4565 12.2986C25.6105 12.4526 25.7327 12.6354 25.8161 12.8367C25.8994 13.0379 25.9423 13.2536 25.9423 13.4714C25.9423 13.6892 25.8994 13.9049 25.8161 14.1061C25.7327 14.3074 25.6105 14.4902 25.4565 14.6442L14.1438 25.957C13.9897 26.1111 13.8068 26.2332 13.6056 26.3166C13.4043 26.3999 13.1886 26.4428 12.9707 26.4428C12.7529 26.4428 12.5371 26.3998 12.3359 26.3164C12.1346 26.233 11.9518 26.1108 11.7978 25.9567L8.89841 23.0573C8.8783 23.0372 8.867 23.0099 8.867 22.9815C8.867 22.9531 8.8783 22.9258 8.89841 22.9057L11.348 20.4561C11.3681 20.436 11.3954 20.4247 11.4238 20.4247C11.4523 20.4247 11.4795 20.436 11.4997 20.4561L12.9312 21.8876C12.9417 21.8981 12.956 21.904 12.9709 21.904C12.9858 21.904 13.0001 21.8981 13.0107 21.8876L21.3871 13.5111C21.3976 13.5006 21.4035 13.4863 21.4035 13.4714C21.4035 13.4565 21.3976 13.4422 21.3871 13.4317L13.0107 5.0552C13.0001 5.04469 12.9858 5.03878 12.9709 5.03878C12.956 5.03878 12.9417 5.04469 12.9312 5.0552L4.55471 13.4317C4.5442 13.4422 4.5383 13.4565 4.5383 13.4714C4.5383 13.4863 4.5442 13.5006 4.55471 13.5111L5.99731 14.9537C6.01742 14.9739 6.02872 15.0011 6.02872 15.0296C6.02872 15.058 6.01742 15.0853 5.99731 15.1054L3.54774 17.555C3.52762 17.5751 3.50034 17.5864 3.4719 17.5864C3.44345 17.5864 3.41617 17.5751 3.39606 17.555Z" fill="url(#paint0_linear_395_6)"/>
<path d="M17.0847 14.9541L14.174 12.0434C13.8629 11.7323 13.4411 11.5576 13.0012 11.5576C12.5613 11.5576 12.1394 11.7323 11.8283 12.0434L0.515591 23.3562C0.204534 23.6672 0.0297852 24.0891 0.0297852 24.529C0.0297852 24.9689 0.204537 25.3908 0.515591 25.7018L11.8283 37.0146C12.1394 37.3256 12.5613 37.5004 13.0012 37.5004C13.4411 37.5004 13.8629 37.3256 14.174 37.0146L25.4868 25.7018C25.6408 25.5478 25.763 25.3649 25.8463 25.1636C25.9297 24.9624 25.9726 24.7466 25.9726 24.5288C25.9725 24.3109 25.9296 24.0952 25.8462 23.894C25.7628 23.6927 25.6405 23.5099 25.4865 23.3559L22.5871 20.4565C22.567 20.4364 22.5397 20.4251 22.5112 20.4251C22.4828 20.4251 22.4555 20.4364 22.4354 20.4565L19.9858 22.9061C19.9657 22.9262 19.9544 22.9535 19.9544 22.9819C19.9544 23.0103 19.9657 23.0376 19.9858 23.0577L21.4174 24.4893C21.4279 24.4998 21.4338 24.5141 21.4338 24.529C21.4338 24.5439 21.4279 24.5582 21.4174 24.5687L13.0409 32.9452C13.0303 32.9557 13.016 32.9616 13.0012 32.9616C12.9863 32.9616 12.972 32.9557 12.9614 32.9452L4.58499 24.5687C4.57448 24.5582 4.56857 24.5439 4.56857 24.529C4.56857 24.5141 4.57448 24.4998 4.58499 24.4893L12.9614 16.1128C12.972 16.1023 12.9863 16.0964 13.0012 16.0964C13.0161 16.0964 13.0303 16.1023 13.0409 16.1128L14.4835 17.5554C14.5036 17.5755 14.5309 17.5868 14.5593 17.5868C14.5878 17.5868 14.615 17.5755 14.6352 17.5554L17.0847 15.1058C17.1048 15.0857 17.1161 15.0584 17.1161 15.03C17.1161 15.0015 17.1048 14.9743 17.0847 14.9541Z" fill="url(#paint1_linear_395_6)"/>
<path d="M42.6699 15.6561C42.616 15.1118 42.3843 14.689 41.975 14.3876C41.5657 14.0863 41.0101 13.9356 40.3084 13.9356C39.8316 13.9356 39.4291 14.003 39.1007 14.138C38.7723 14.2684 38.5204 14.4506 38.345 14.6845C38.1741 14.9184 38.0886 15.1838 38.0886 15.4807C38.0796 15.7281 38.1314 15.944 38.2438 16.1284C38.3608 16.3128 38.5204 16.4725 38.7229 16.6074C38.9253 16.7379 39.1592 16.8526 39.4246 16.9515C39.6899 17.046 39.9733 17.127 40.2747 17.1944L41.5162 17.4913C42.1189 17.6263 42.6722 17.8062 43.176 18.0311C43.6798 18.256 44.1161 18.5326 44.4849 18.861C44.8538 19.1894 45.1394 19.5762 45.3418 20.0215C45.5487 20.4668 45.6544 20.9774 45.6589 21.5531C45.6544 22.3988 45.4385 23.1319 45.0112 23.7527C44.5884 24.3689 43.9766 24.848 43.176 25.1898C42.3798 25.5272 41.4195 25.6959 40.2949 25.6959C39.1794 25.6959 38.2078 25.5249 37.3802 25.1831C36.557 24.8412 35.9138 24.3352 35.4505 23.665C34.9917 22.9903 34.751 22.1559 34.7285 21.1618H37.5556C37.5871 21.6251 37.7198 22.0119 37.9537 22.3223C38.1921 22.6282 38.5092 22.8598 38.905 23.0172C39.3054 23.1702 39.7574 23.2466 40.2612 23.2466C40.756 23.2466 41.1856 23.1747 41.5499 23.0307C41.9188 22.8868 42.2044 22.6866 42.4068 22.4302C42.6092 22.1739 42.7104 21.8792 42.7104 21.5464C42.7104 21.236 42.6182 20.9751 42.4338 20.7637C42.2539 20.5523 41.9885 20.3724 41.6376 20.2239C41.2913 20.0755 40.8662 19.9405 40.3624 19.8191L38.8578 19.4413C37.6928 19.1579 36.7729 18.7148 36.0982 18.1121C35.4235 17.5093 35.0884 16.6974 35.0929 15.6763C35.0884 14.8397 35.311 14.1087 35.7609 13.4835C36.2152 12.8583 36.8381 12.3702 37.6298 12.0194C38.4215 11.6685 39.3211 11.4931 40.3287 11.4931C41.3542 11.4931 42.2494 11.6685 43.014 12.0194C43.7832 12.3702 44.3815 12.8583 44.8088 13.4835C45.2361 14.1087 45.4565 14.8329 45.47 15.6561H42.6699ZM50.5253 25.6959C49.8641 25.6959 49.2749 25.5812 48.7576 25.3518C48.2403 25.1179 47.831 24.7738 47.5296 24.3194C47.2327 23.8606 47.0843 23.2894 47.0843 22.6057C47.0843 22.0299 47.19 21.5464 47.4014 21.155C47.6128 20.7637 47.9007 20.4488 48.265 20.2104C48.6294 19.972 49.0432 19.7921 49.5065 19.6707C49.9743 19.5492 50.4646 19.4637 50.9774 19.4143C51.5801 19.3513 52.0659 19.2928 52.4348 19.2388C52.8036 19.1804 53.0713 19.0949 53.2377 18.9824C53.4041 18.87 53.4873 18.7036 53.4873 18.4832V18.4427C53.4873 18.0154 53.3524 17.6847 53.0825 17.4508C52.8171 17.2169 52.4393 17.1 51.949 17.1C51.4317 17.1 51.0201 17.2147 50.7142 17.4441C50.4084 17.669 50.206 17.9524 50.107 18.2942L47.4486 18.0783C47.5836 17.4486 47.849 16.9043 48.2448 16.4455C48.6406 15.9822 49.1512 15.6269 49.7764 15.3795C50.4061 15.1276 51.1348 15.0016 51.9625 15.0016C52.5382 15.0016 53.0892 15.0691 53.6155 15.204C54.1463 15.339 54.6164 15.5481 55.0257 15.8315C55.4395 16.1149 55.7656 16.4792 56.004 16.9246C56.2424 17.3654 56.3616 17.8939 56.3616 18.5101V25.5002H53.6358V24.0631H53.5548C53.3884 24.3869 53.1657 24.6725 52.8868 24.9199C52.6079 25.1628 52.2728 25.354 51.8815 25.4935C51.4902 25.6284 51.0381 25.6959 50.5253 25.6959ZM51.3485 23.7122C51.7713 23.7122 52.1446 23.629 52.4685 23.4626C52.7924 23.2916 53.0465 23.0622 53.2309 22.7743C53.4154 22.4865 53.5076 22.1604 53.5076 21.796V20.6962C53.4176 20.7547 53.2939 20.8087 53.1365 20.8582C52.9835 20.9031 52.8104 20.9459 52.6169 20.9864C52.4235 21.0223 52.2301 21.0561 52.0367 21.0876C51.8433 21.1145 51.6678 21.1393 51.5104 21.1618C51.1731 21.2113 50.8784 21.29 50.6265 21.3979C50.3746 21.5059 50.179 21.6521 50.0395 21.8365C49.9001 22.0164 49.8304 22.2413 49.8304 22.5112C49.8304 22.9025 49.9721 23.2017 50.2554 23.4086C50.5433 23.611 50.9077 23.7122 51.3485 23.7122ZM64.104 15.1366V17.2957H57.8629V15.1366H64.104ZM59.2798 12.6536H62.1541V22.3155C62.1541 22.5809 62.1945 22.7878 62.2755 22.9363C62.3565 23.0802 62.4689 23.1814 62.6129 23.2399C62.7613 23.2984 62.9322 23.3276 63.1256 23.3276C63.2606 23.3276 63.3955 23.3164 63.5305 23.2939C63.6654 23.2669 63.7689 23.2466 63.8408 23.2332L64.2929 25.372C64.149 25.417 63.9465 25.4687 63.6857 25.5272C63.4248 25.5902 63.1077 25.6284 62.7343 25.6419C62.0416 25.6689 61.4344 25.5767 60.9126 25.3653C60.3953 25.1538 59.9927 24.8255 59.7048 24.3802C59.417 23.9349 59.2753 23.3726 59.2798 22.6934V12.6536ZM70.5475 25.7026C69.4995 25.7026 68.5931 25.48 67.8284 25.0346C67.0682 24.5848 66.4812 23.9596 66.0674 23.1589C65.6536 22.3538 65.4467 21.4204 65.4467 20.3589C65.4467 19.2883 65.6536 18.3527 66.0674 17.552C66.4812 16.7469 67.0682 16.1216 67.8284 15.6763C68.5931 15.2265 69.4995 15.0016 70.5475 15.0016C71.5956 15.0016 72.4997 15.2265 73.2599 15.6763C74.0246 16.1216 74.6138 16.7469 75.0276 17.552C75.4415 18.3527 75.6484 19.2883 75.6484 20.3589C75.6484 21.4204 75.4415 22.3538 75.0276 23.1589C74.6138 23.9596 74.0246 24.5848 73.2599 25.0346C72.4997 25.48 71.5956 25.7026 70.5475 25.7026ZM70.561 23.4761C71.0378 23.4761 71.4359 23.3411 71.7553 23.0712C72.0746 22.7968 72.3153 22.4235 72.4772 21.9512C72.6436 21.4789 72.7269 20.9414 72.7269 20.3386C72.7269 19.7359 72.6436 19.1984 72.4772 18.7261C72.3153 18.2538 72.0746 17.8804 71.7553 17.606C71.4359 17.3316 71.0378 17.1944 70.561 17.1944C70.0797 17.1944 69.6749 17.3316 69.3465 17.606C69.0227 17.8804 68.7775 18.2538 68.6111 18.7261C68.4492 19.1984 68.3682 19.7359 68.3682 20.3386C68.3682 20.9414 68.4492 21.4789 68.6111 21.9512C68.7775 22.4235 69.0227 22.7968 69.3465 23.0712C69.6749 23.3411 70.0797 23.4761 70.561 23.4761ZM82.1999 25.7026C81.1383 25.7026 80.2252 25.4777 79.4605 25.0279C78.7003 24.5736 78.1156 23.9439 77.7063 23.1387C77.3014 22.3335 77.099 21.4069 77.099 20.3589C77.099 19.2973 77.3037 18.3662 77.713 17.5655C78.1268 16.7604 78.7138 16.1329 79.474 15.6831C80.2342 15.2288 81.1383 15.0016 82.1864 15.0016C83.0905 15.0016 83.8822 15.1658 84.5614 15.4942C85.2406 15.8225 85.7781 16.2836 86.1739 16.8773C86.5698 17.4711 86.7879 18.1683 86.8284 18.969H84.1161C84.0396 18.4517 83.8372 18.0356 83.5088 17.7207C83.1849 17.4014 82.7599 17.2417 82.2336 17.2417C81.7883 17.2417 81.3992 17.3631 81.0663 17.606C80.738 17.8444 80.4816 18.193 80.2972 18.6518C80.1127 19.1106 80.0205 19.6662 80.0205 20.3184C80.0205 20.9796 80.1105 21.5419 80.2904 22.0052C80.4748 22.4685 80.7335 22.8216 81.0663 23.0645C81.3992 23.3074 81.7883 23.4288 82.2336 23.4288C82.562 23.4288 82.8566 23.3614 83.1175 23.2264C83.3829 23.0915 83.601 22.8958 83.772 22.6394C83.9474 22.3785 84.0621 22.0659 84.1161 21.7015H86.8284C86.7834 22.4932 86.5675 23.1904 86.1807 23.7932C85.7983 24.3914 85.2698 24.8592 84.5951 25.1966C83.9204 25.5339 83.122 25.7026 82.1999 25.7026ZM91.543 19.5087V25.5002H88.6687V11.682H91.462V16.965H91.5835C91.8174 16.3533 92.1952 15.8743 92.717 15.5279C93.2388 15.177 93.8933 15.0016 94.6804 15.0016C95.4001 15.0016 96.0276 15.1591 96.5629 15.4739C97.1027 15.7843 97.521 16.2319 97.8178 16.8166C98.1192 17.3969 98.2677 18.0918 98.2632 18.9015V25.5002H95.3889V19.4143C95.3934 18.7755 95.2314 18.2785 94.9031 17.9231C94.5792 17.5678 94.1249 17.3901 93.5402 17.3901C93.1488 17.3901 92.8025 17.4733 92.5011 17.6398C92.2042 17.8062 91.9703 18.0491 91.7994 18.3685C91.633 18.6833 91.5475 19.0634 91.543 19.5087ZM103.48 25.6959C102.819 25.6959 102.23 25.5812 101.712 25.3518C101.195 25.1179 100.786 24.7738 100.484 24.3194C100.188 23.8606 100.039 23.2894 100.039 22.6057C100.039 22.0299 100.145 21.5464 100.356 21.155C100.568 20.7637 100.856 20.4488 101.22 20.2104C101.584 19.972 101.998 19.7921 102.461 19.6707C102.929 19.5492 103.419 19.4637 103.932 19.4143C104.535 19.3513 105.021 19.2928 105.39 19.2388C105.758 19.1804 106.026 19.0949 106.193 18.9824C106.359 18.87 106.442 18.7036 106.442 18.4832V18.4427C106.442 18.0154 106.307 17.6847 106.037 17.4508C105.772 17.2169 105.394 17.1 104.904 17.1C104.387 17.1 103.975 17.2147 103.669 17.4441C103.363 17.669 103.161 17.9524 103.062 18.2942L100.403 18.0783C100.538 17.4486 100.804 16.9043 101.2 16.4455C101.595 15.9822 102.106 15.6269 102.731 15.3795C103.361 15.1276 104.09 15.0016 104.917 15.0016C105.493 15.0016 106.044 15.0691 106.57 15.204C107.101 15.339 107.571 15.5481 107.981 15.8315C108.394 16.1149 108.72 16.4792 108.959 16.9246C109.197 17.3654 109.316 17.8939 109.316 18.5101V25.5002H106.591V24.0631H106.51C106.343 24.3869 106.121 24.6725 105.842 24.9199C105.563 25.1628 105.228 25.354 104.836 25.4935C104.445 25.6284 103.993 25.6959 103.48 25.6959ZM104.303 23.7122C104.726 23.7122 105.1 23.629 105.423 23.4626C105.747 23.2916 106.001 23.0622 106.186 22.7743C106.37 22.4865 106.462 22.1604 106.462 21.796V20.6962C106.372 20.7547 106.249 20.8087 106.091 20.8582C105.938 20.9031 105.765 20.9459 105.572 20.9864C105.378 21.0223 105.185 21.0561 104.992 21.0876C104.798 21.1145 104.623 21.1393 104.465 21.1618C104.128 21.2113 103.833 21.29 103.581 21.3979C103.33 21.5059 103.134 21.6521 102.994 21.8365C102.855 22.0164 102.785 22.2413 102.785 22.5112C102.785 22.9025 102.927 23.2017 103.21 23.4086C103.498 23.611 103.863 23.7122 104.303 23.7122ZM111.546 25.5002V15.1366H114.421V25.5002H111.546ZM112.99 13.8006C112.563 13.8006 112.196 13.6589 111.891 13.3756C111.589 13.0877 111.438 12.7436 111.438 12.3432C111.438 11.9474 111.589 11.6078 111.891 11.3244C112.196 11.0365 112.563 10.8926 112.99 10.8926C113.418 10.8926 113.782 11.0365 114.083 11.3244C114.389 11.6078 114.542 11.9474 114.542 12.3432C114.542 12.7436 114.389 13.0877 114.083 13.3756C113.782 13.6589 113.418 13.8006 112.99 13.8006ZM119.597 19.5087V25.5002H116.723V15.1366H119.463V16.965H119.584C119.813 16.3623 120.198 15.8855 120.738 15.5346C121.278 15.1793 121.932 15.0016 122.701 15.0016C123.421 15.0016 124.048 15.1591 124.584 15.4739C125.119 15.7888 125.535 16.2386 125.832 16.8234C126.129 17.4036 126.277 18.0963 126.277 18.9015V25.5002H123.403V19.4143C123.407 18.78 123.245 18.2852 122.917 17.9299C122.589 17.57 122.137 17.3901 121.561 17.3901C121.174 17.3901 120.832 17.4733 120.535 17.6398C120.243 17.8062 120.014 18.0491 119.847 18.3685C119.685 18.6833 119.602 19.0634 119.597 19.5087Z" fill="black"/>
</g>
<defs>
<linearGradient id="paint0_linear_395_6" x1="25.9727" y1="0.499999" x2="-8.82589" y2="24.9278" gradientUnits="userSpaceOnUse">
<stop stop-color="#FFA026"/>
<stop offset="1" stop-color="#F7620C"/>
</linearGradient>
<linearGradient id="paint1_linear_395_6" x1="25.9726" y1="0.500418" x2="-8.82595" y2="24.9282" gradientUnits="userSpaceOnUse">
<stop stop-color="#FFA026"/>
<stop offset="1" stop-color="#F7620C"/>
</linearGradient>
<clipPath id="clip0_395_6">
<rect width="128" height="38" fill="white"/>
</clipPath>
</defs>
</svg>
