<svg width="128" height="38" viewBox="0 0 128 38" fill="none" xmlns="http://www.w3.org/2000/svg">
<path d="M3.39606 17.555L0.48532 14.6442C0.174266 14.3332 -0.000485201 13.9113 -0.00048524 13.4714C-0.000485278 13.0315 0.174264 12.6096 0.48532 12.2986L11.7981 0.985806C12.1091 0.67475 12.531 0.500001 12.9709 0.500001C13.4108 0.500001 13.8327 0.67475 14.1438 0.985805L25.4565 12.2986C25.6105 12.4526 25.7327 12.6354 25.8161 12.8367C25.8994 13.0379 25.9423 13.2536 25.9423 13.4714C25.9423 13.6892 25.8994 13.9049 25.8161 14.1061C25.7327 14.3074 25.6105 14.4902 25.4565 14.6442L14.1438 25.957C13.9897 26.1111 13.8068 26.2332 13.6056 26.3166C13.4043 26.3999 13.1886 26.4428 12.9707 26.4428C12.7529 26.4428 12.5371 26.3998 12.3359 26.3164C12.1346 26.233 11.9518 26.1108 11.7978 25.9567L8.89841 23.0573C8.8783 23.0372 8.867 23.0099 8.867 22.9815C8.867 22.9531 8.8783 22.9258 8.89841 22.9057L11.348 20.4561C11.3681 20.436 11.3954 20.4247 11.4238 20.4247C11.4523 20.4247 11.4795 20.436 11.4997 20.4561L12.9312 21.8876C12.9417 21.8981 12.956 21.904 12.9709 21.904C12.9858 21.904 13.0001 21.8981 13.0107 21.8876L21.3871 13.5111C21.3976 13.5006 21.4035 13.4863 21.4035 13.4714C21.4035 13.4565 21.3976 13.4422 21.3871 13.4317L13.0107 5.0552C13.0001 5.04469 12.9858 5.03878 12.9709 5.03878C12.956 5.03878 12.9417 5.04469 12.9312 5.0552L4.55471 13.4317C4.5442 13.4422 4.5383 13.4565 4.5383 13.4714C4.5383 13.4863 4.5442 13.5006 4.55471 13.5111L5.99731 14.9537C6.01742 14.9739 6.02872 15.0011 6.02872 15.0296C6.02872 15.058 6.01742 15.0853 5.99731 15.1054L3.54774 17.555C3.52762 17.5751 3.50034 17.5864 3.4719 17.5864C3.44345 17.5864 3.41617 17.5751 3.39606 17.555Z" fill="url(#paint0_linear_54738_215)"/>
<path d="M17.0848 14.9537L14.1741 12.043C13.863 11.7319 13.4412 11.5572 13.0013 11.5572C12.5614 11.5572 12.1395 11.7319 11.8284 12.043L0.515656 23.3558C0.204599 23.6668 0.0298502 24.0887 0.0298502 24.5286C0.0298502 24.9685 0.204602 25.3904 0.515656 25.7014L11.8284 37.0142C12.1395 37.3252 12.5614 37.5 13.0013 37.5C13.4412 37.5 13.863 37.3252 14.1741 37.0142L25.4869 25.7014C25.6409 25.5474 25.7631 25.3645 25.8464 25.1632C25.9298 24.962 25.9727 24.7462 25.9727 24.5284C25.9726 24.3105 25.9297 24.0948 25.8463 23.8936C25.7629 23.6923 25.6406 23.5095 25.4866 23.3555L22.5872 20.4561C22.5671 20.436 22.5398 20.4247 22.5113 20.4247C22.4829 20.4247 22.4556 20.436 22.4355 20.4561L19.9859 22.9057C19.9658 22.9258 19.9545 22.9531 19.9545 22.9815C19.9545 23.0099 19.9658 23.0372 19.9859 23.0573L21.4175 24.4889C21.428 24.4994 21.4339 24.5137 21.4339 24.5286C21.4339 24.5435 21.428 24.5578 21.4175 24.5683L13.041 32.9448C13.0304 32.9553 13.0161 32.9612 13.0013 32.9612C12.9864 32.9612 12.9721 32.9553 12.9615 32.9448L4.58505 24.5683C4.57454 24.5578 4.56863 24.5435 4.56863 24.5286C4.56863 24.5137 4.57454 24.4994 4.58505 24.4889L12.9615 16.1124C12.9721 16.1019 12.9864 16.096 13.0013 16.096C13.0162 16.096 13.0304 16.1019 13.041 16.1124L14.4836 17.555C14.5037 17.5751 14.531 17.5864 14.5594 17.5864C14.5879 17.5864 14.6151 17.5751 14.6353 17.555L17.0848 15.1054C17.1049 15.0853 17.1162 15.058 17.1162 15.0296C17.1162 15.0011 17.1049 14.9739 17.0848 14.9537Z" fill="url(#paint1_linear_54738_215)"/>
<path d="M42.6697 15.6559C42.6158 15.1116 42.3841 14.6888 41.9748 14.3874C41.5655 14.0861 41.0099 13.9354 40.3082 13.9354C39.8314 13.9354 39.4289 14.0028 39.1005 14.1378C38.7721 14.2682 38.5202 14.4504 38.3448 14.6843C38.1739 14.9182 38.0884 15.1836 38.0884 15.4805C38.0794 15.7279 38.1312 15.9438 38.2436 16.1282C38.3606 16.3126 38.5202 16.4723 38.7227 16.6072C38.9251 16.7377 39.159 16.8524 39.4244 16.9513C39.6897 17.0458 39.9731 17.1268 40.2745 17.1942L41.516 17.4911C42.1187 17.6261 42.672 17.806 43.1758 18.0309C43.6796 18.2558 44.1159 18.5324 44.4847 18.8608C44.8536 19.1892 45.1392 19.576 45.3416 20.0213C45.5485 20.4666 45.6542 20.9772 45.6587 21.5529C45.6542 22.3986 45.4383 23.1317 45.011 23.7525C44.5882 24.3687 43.9764 24.8478 43.1758 25.1896C42.3796 25.527 41.4193 25.6957 40.2947 25.6957C39.1792 25.6957 38.2076 25.5247 37.38 25.1829C36.5568 24.841 35.9136 24.335 35.4503 23.6648C34.9915 22.9901 34.7508 22.1557 34.7283 21.1616H37.5554C37.5869 21.6249 37.7196 22.0117 37.9535 22.3221C38.1919 22.628 38.509 22.8596 38.9048 23.017C39.3052 23.17 39.7572 23.2464 40.261 23.2464C40.7558 23.2464 41.1854 23.1745 41.5497 23.0305C41.9186 22.8866 42.2042 22.6864 42.4066 22.43C42.609 22.1737 42.7102 21.879 42.7102 21.5462C42.7102 21.2358 42.618 20.9749 42.4336 20.7635C42.2537 20.5521 41.9883 20.3722 41.6374 20.2237C41.2911 20.0753 40.866 19.9403 40.3622 19.8189L38.8576 19.4411C37.6926 19.1577 36.7727 18.7146 36.098 18.1119C35.4233 17.5091 35.0882 16.6972 35.0927 15.6761C35.0882 14.8395 35.3108 14.1085 35.7607 13.4833C36.215 12.8581 36.8379 12.37 37.6296 12.0192C38.4213 11.6683 39.3209 11.4929 40.3285 11.4929C41.354 11.4929 42.2492 11.6683 43.0138 12.0192C43.783 12.37 44.3813 12.8581 44.8086 13.4833C45.2359 14.1085 45.4563 14.8327 45.4698 15.6559H42.6697ZM50.5251 25.6957C49.8639 25.6957 49.2747 25.581 48.7574 25.3516C48.2401 25.1177 47.8308 24.7736 47.5294 24.3192C47.2325 23.8604 47.0841 23.2892 47.0841 22.6055C47.0841 22.0297 47.1898 21.5462 47.4012 21.1548C47.6126 20.7635 47.9005 20.4486 48.2648 20.2102C48.6292 19.9718 49.043 19.7919 49.5063 19.6705C49.9741 19.549 50.4644 19.4635 50.9772 19.4141C51.5799 19.3511 52.0657 19.2926 52.4346 19.2386C52.8034 19.1802 53.0711 19.0947 53.2375 18.9822C53.4039 18.8698 53.4871 18.7034 53.4871 18.483V18.4425C53.4871 18.0152 53.3522 17.6845 53.0823 17.4506C52.8169 17.2167 52.4391 17.0998 51.9488 17.0998C51.4315 17.0998 51.0199 17.2145 50.714 17.4439C50.4082 17.6688 50.2058 17.9522 50.1068 18.294L47.4484 18.0781C47.5834 17.4484 47.8488 16.9041 48.2446 16.4453C48.6404 15.982 49.151 15.6267 49.7762 15.3793C50.4059 15.1274 51.1346 15.0014 51.9623 15.0014C52.538 15.0014 53.089 15.0689 53.6153 15.2038C54.1461 15.3388 54.6162 15.5479 55.0255 15.8313C55.4393 16.1147 55.7654 16.479 56.0038 16.9244C56.2422 17.3652 56.3614 17.8937 56.3614 18.5099V25.5H53.6356V24.0629H53.5546C53.3882 24.3867 53.1655 24.6723 52.8866 24.9197C52.6077 25.1626 52.2726 25.3538 51.8813 25.4933C51.49 25.6282 51.0379 25.6957 50.5251 25.6957ZM51.3483 23.712C51.7711 23.712 52.1444 23.6288 52.4683 23.4624C52.7922 23.2914 53.0463 23.062 53.2307 22.7741C53.4152 22.4863 53.5074 22.1602 53.5074 21.7958V20.696C53.4174 20.7545 53.2937 20.8085 53.1363 20.858C52.9833 20.9029 52.8102 20.9457 52.6167 20.9862C52.4233 21.0221 52.2299 21.0559 52.0365 21.0874C51.8431 21.1143 51.6676 21.1391 51.5102 21.1616C51.1729 21.2111 50.8782 21.2898 50.6263 21.3977C50.3744 21.5057 50.1788 21.6519 50.0393 21.8363C49.8999 22.0162 49.8302 22.2411 49.8302 22.511C49.8302 22.9023 49.9719 23.2015 50.2552 23.4084C50.5431 23.6108 50.9075 23.712 51.3483 23.712ZM64.1038 15.1364V17.2955H57.8627V15.1364H64.1038ZM59.2796 12.6534H62.1539V22.3153C62.1539 22.5807 62.1943 22.7876 62.2753 22.9361C62.3563 23.08 62.4687 23.1812 62.6127 23.2397C62.7611 23.2982 62.932 23.3274 63.1254 23.3274C63.2604 23.3274 63.3953 23.3162 63.5303 23.2937C63.6652 23.2667 63.7687 23.2464 63.8406 23.233L64.2927 25.3718C64.1488 25.4168 63.9463 25.4685 63.6855 25.527C63.4246 25.59 63.1075 25.6282 62.7341 25.6417C62.0414 25.6687 61.4342 25.5765 60.9124 25.3651C60.3951 25.1536 59.9925 24.8253 59.7046 24.38C59.4168 23.9347 59.2751 23.3724 59.2796 22.6932V12.6534ZM70.5473 25.7024C69.4993 25.7024 68.5929 25.4798 67.8282 25.0344C67.068 24.5846 66.481 23.9594 66.0672 23.1587C65.6534 22.3536 65.4465 21.4202 65.4465 20.3587C65.4465 19.2881 65.6534 18.3525 66.0672 17.5518C66.481 16.7467 67.068 16.1214 67.8282 15.6761C68.5929 15.2263 69.4993 15.0014 70.5473 15.0014C71.5954 15.0014 72.4995 15.2263 73.2597 15.6761C74.0244 16.1214 74.6136 16.7467 75.0274 17.5518C75.4413 18.3525 75.6482 19.2881 75.6482 20.3587C75.6482 21.4202 75.4413 22.3536 75.0274 23.1587C74.6136 23.9594 74.0244 24.5846 73.2597 25.0344C72.4995 25.4798 71.5954 25.7024 70.5473 25.7024ZM70.5608 23.4759C71.0376 23.4759 71.4357 23.3409 71.7551 23.071C72.0744 22.7966 72.3151 22.4233 72.477 21.951C72.6434 21.4787 72.7267 20.9412 72.7267 20.3384C72.7267 19.7357 72.6434 19.1982 72.477 18.7259C72.3151 18.2536 72.0744 17.8802 71.7551 17.6058C71.4357 17.3314 71.0376 17.1942 70.5608 17.1942C70.0795 17.1942 69.6747 17.3314 69.3463 17.6058C69.0225 17.8802 68.7773 18.2536 68.6109 18.7259C68.449 19.1982 68.368 19.7357 68.368 20.3384C68.368 20.9412 68.449 21.4787 68.6109 21.951C68.7773 22.4233 69.0225 22.7966 69.3463 23.071C69.6747 23.3409 70.0795 23.4759 70.5608 23.4759ZM82.1997 25.7024C81.1381 25.7024 80.225 25.4775 79.4603 25.0277C78.7001 24.5734 78.1154 23.9437 77.7061 23.1385C77.3012 22.3333 77.0988 21.4067 77.0988 20.3587C77.0988 19.2971 77.3035 18.366 77.7128 17.5653C78.1266 16.7602 78.7136 16.1327 79.4738 15.6829C80.234 15.2286 81.1381 15.0014 82.1862 15.0014C83.0903 15.0014 83.882 15.1656 84.5612 15.494C85.2404 15.8223 85.7779 16.2834 86.1737 16.8771C86.5696 17.4709 86.7877 18.1681 86.8282 18.9688H84.1159C84.0394 18.4515 83.837 18.0354 83.5086 17.7205C83.1847 17.4012 82.7597 17.2415 82.2334 17.2415C81.7881 17.2415 81.399 17.3629 81.0661 17.6058C80.7378 17.8442 80.4814 18.1928 80.297 18.6516C80.1125 19.1104 80.0203 19.666 80.0203 20.3182C80.0203 20.9794 80.1103 21.5417 80.2902 22.005C80.4746 22.4683 80.7333 22.8214 81.0661 23.0643C81.399 23.3072 81.7881 23.4286 82.2334 23.4286C82.5618 23.4286 82.8564 23.3612 83.1173 23.2262C83.3827 23.0913 83.6008 22.8956 83.7718 22.6392C83.9472 22.3783 84.0619 22.0657 84.1159 21.7013H86.8282C86.7832 22.493 86.5673 23.1902 86.1805 23.793C85.7981 24.3912 85.2696 24.859 84.5949 25.1964C83.9202 25.5337 83.1218 25.7024 82.1997 25.7024ZM91.5428 19.5085V25.5H88.6685V11.6818H91.4618V16.9648H91.5833C91.8172 16.3531 92.195 15.8741 92.7168 15.5277C93.2386 15.1768 93.8931 15.0014 94.6802 15.0014C95.3999 15.0014 96.0274 15.1589 96.5627 15.4737C97.1025 15.7841 97.5208 16.2317 97.8176 16.8164C98.119 17.3967 98.2675 18.0916 98.263 18.9013V25.5H95.3887V19.4141C95.3932 18.7753 95.2312 18.2783 94.9029 17.9229C94.579 17.5676 94.1247 17.3899 93.54 17.3899C93.1486 17.3899 92.8023 17.4731 92.5009 17.6396C92.204 17.806 91.9701 18.0489 91.7992 18.3683C91.6328 18.6831 91.5473 19.0632 91.5428 19.5085ZM103.48 25.6957C102.819 25.6957 102.23 25.581 101.712 25.3516C101.195 25.1177 100.786 24.7736 100.484 24.3192C100.188 23.8604 100.039 23.2892 100.039 22.6055C100.039 22.0297 100.145 21.5462 100.356 21.1548C100.568 20.7635 100.856 20.4486 101.22 20.2102C101.584 19.9718 101.998 19.7919 102.461 19.6705C102.929 19.549 103.419 19.4635 103.932 19.4141C104.535 19.3511 105.021 19.2926 105.39 19.2386C105.758 19.1802 106.026 19.0947 106.193 18.9822C106.359 18.8698 106.442 18.7034 106.442 18.483V18.4425C106.442 18.0152 106.307 17.6845 106.037 17.4506C105.772 17.2167 105.394 17.0998 104.904 17.0998C104.387 17.0998 103.975 17.2145 103.669 17.4439C103.363 17.6688 103.161 17.9522 103.062 18.294L100.403 18.0781C100.538 17.4484 100.804 16.9041 101.2 16.4453C101.595 15.982 102.106 15.6267 102.731 15.3793C103.361 15.1274 104.09 15.0014 104.917 15.0014C105.493 15.0014 106.044 15.0689 106.57 15.2038C107.101 15.3388 107.571 15.5479 107.981 15.8313C108.394 16.1147 108.72 16.479 108.959 16.9244C109.197 17.3652 109.316 17.8937 109.316 18.5099V25.5H106.591V24.0629H106.51C106.343 24.3867 106.121 24.6723 105.842 24.9197C105.563 25.1626 105.228 25.3538 104.836 25.4933C104.445 25.6282 103.993 25.6957 103.48 25.6957ZM104.303 23.712C104.726 23.712 105.1 23.6288 105.423 23.4624C105.747 23.2914 106.001 23.062 106.186 22.7741C106.37 22.4863 106.462 22.1602 106.462 21.7958V20.696C106.372 20.7545 106.249 20.8085 106.091 20.858C105.938 20.9029 105.765 20.9457 105.572 20.9862C105.378 21.0221 105.185 21.0559 104.992 21.0874C104.798 21.1143 104.623 21.1391 104.465 21.1616C104.128 21.2111 103.833 21.2898 103.581 21.3977C103.33 21.5057 103.134 21.6519 102.994 21.8363C102.855 22.0162 102.785 22.2411 102.785 22.511C102.785 22.9023 102.927 23.2015 103.21 23.4084C103.498 23.6108 103.863 23.712 104.303 23.712ZM111.546 25.5V15.1364H114.421V25.5H111.546ZM112.99 13.8004C112.563 13.8004 112.196 13.6587 111.891 13.3754C111.589 13.0875 111.438 12.7434 111.438 12.343C111.438 11.9472 111.589 11.6076 111.891 11.3242C112.196 11.0363 112.563 10.8924 112.99 10.8924C113.418 10.8924 113.782 11.0363 114.083 11.3242C114.389 11.6076 114.542 11.9472 114.542 12.343C114.542 12.7434 114.389 13.0875 114.083 13.3754C113.782 13.6587 113.418 13.8004 112.99 13.8004ZM119.597 19.5085V25.5H116.723V15.1364H119.463V16.9648H119.584C119.813 16.3621 120.198 15.8853 120.738 15.5344C121.278 15.1791 121.932 15.0014 122.701 15.0014C123.421 15.0014 124.048 15.1589 124.584 15.4737C125.119 15.7886 125.535 16.2384 125.832 16.8232C126.129 17.4034 126.277 18.0961 126.277 18.9013V25.5H123.403V19.4141C123.407 18.7798 123.245 18.285 122.917 17.9297C122.589 17.5698 122.137 17.3899 121.561 17.3899C121.174 17.3899 120.832 17.4731 120.535 17.6396C120.243 17.806 120.014 18.0489 119.847 18.3683C119.685 18.6831 119.602 19.0632 119.597 19.5085Z" fill="white"/>
<defs>
<linearGradient id="paint0_linear_54738_215" x1="25.9727" y1="0.5" x2="-8.82589" y2="24.9278" gradientUnits="userSpaceOnUse">
<stop stop-color="#FFA026"/>
<stop offset="1" stop-color="#F7620C"/>
</linearGradient>
<linearGradient id="paint1_linear_54738_215" x1="25.9727" y1="0.5" x2="-8.82589" y2="24.9278" gradientUnits="userSpaceOnUse">
<stop stop-color="#FFA026"/>
<stop offset="1" stop-color="#F7620C"/>
</linearGradient>
</defs>
</svg>
