<svg width="26" height="38" viewBox="0 0 26 38" fill="none" xmlns="http://www.w3.org/2000/svg">
<path d="M3.39606 17.555L0.485317 14.6442C0.174263 14.3332 -0.000488242 13.9113 -0.000488281 13.4714C-0.000488319 13.0315 0.174261 12.6096 0.485317 12.2986L11.7981 0.985805C12.1091 0.674749 12.531 0.5 12.9709 0.5C13.4108 0.5 13.8327 0.674749 14.1438 0.985804L25.4565 12.2986C25.6105 12.4526 25.7327 12.6354 25.8161 12.8367C25.8994 13.0379 25.9423 13.2536 25.9423 13.4714C25.9423 13.6892 25.8994 13.9049 25.8161 14.1061C25.7327 14.3074 25.6105 14.4902 25.4565 14.6442L14.1438 25.957C13.9897 26.1111 13.8068 26.2332 13.6056 26.3166C13.4043 26.3999 13.1886 26.4428 12.9707 26.4428C12.7529 26.4428 12.5371 26.3998 12.3359 26.3164C12.1346 26.233 11.9518 26.1108 11.7978 25.9567L8.89841 23.0573C8.8783 23.0372 8.867 23.0099 8.867 22.9815C8.867 22.9531 8.8783 22.9258 8.89841 22.9057L11.348 20.4561C11.3681 20.436 11.3954 20.4247 11.4238 20.4247C11.4523 20.4247 11.4795 20.436 11.4997 20.4561L12.9312 21.8876C12.9417 21.8981 12.956 21.904 12.9709 21.904C12.9858 21.904 13.0001 21.8981 13.0107 21.8876L21.3871 13.5111C21.3976 13.5006 21.4035 13.4863 21.4035 13.4714C21.4035 13.4565 21.3976 13.4422 21.3871 13.4317L13.0107 5.0552C13.0001 5.04469 12.9858 5.03878 12.9709 5.03878C12.956 5.03878 12.9417 5.04469 12.9312 5.0552L4.55471 13.4317C4.5442 13.4422 4.5383 13.4565 4.5383 13.4714C4.5383 13.4863 4.5442 13.5006 4.55471 13.5111L5.99731 14.9537C6.01742 14.9739 6.02872 15.0011 6.02872 15.0296C6.02872 15.058 6.01742 15.0853 5.99731 15.1054L3.54774 17.555C3.52762 17.5751 3.50034 17.5864 3.4719 17.5864C3.44345 17.5864 3.41617 17.5751 3.39606 17.555Z" fill="url(#paint0_linear_395_10)"/>
<path d="M17.0847 14.9541L14.174 12.0434C13.8629 11.7323 13.4411 11.5576 13.0012 11.5576C12.5613 11.5576 12.1394 11.7323 11.8283 12.0434L0.515591 23.3562C0.204534 23.6672 0.0297852 24.0891 0.0297852 24.529C0.0297852 24.9689 0.204537 25.3908 0.515591 25.7018L11.8283 37.0146C12.1394 37.3256 12.5613 37.5004 13.0012 37.5004C13.4411 37.5004 13.8629 37.3256 14.174 37.0146L25.4868 25.7018C25.6408 25.5478 25.763 25.3649 25.8463 25.1636C25.9297 24.9624 25.9726 24.7466 25.9726 24.5288C25.9725 24.3109 25.9296 24.0952 25.8462 23.894C25.7628 23.6927 25.6405 23.5099 25.4865 23.3559L22.5871 20.4565C22.567 20.4364 22.5397 20.4251 22.5112 20.4251C22.4828 20.4251 22.4555 20.4364 22.4354 20.4565L19.9858 22.9061C19.9657 22.9262 19.9544 22.9535 19.9544 22.9819C19.9544 23.0103 19.9657 23.0376 19.9858 23.0577L21.4174 24.4893C21.4279 24.4998 21.4338 24.5141 21.4338 24.529C21.4338 24.5439 21.4279 24.5582 21.4174 24.5687L13.0409 32.9452C13.0303 32.9557 13.016 32.9616 13.0012 32.9616C12.9863 32.9616 12.972 32.9557 12.9614 32.9452L4.58499 24.5687C4.57448 24.5582 4.56857 24.5439 4.56857 24.529C4.56857 24.5141 4.57448 24.4998 4.58499 24.4893L12.9614 16.1128C12.972 16.1023 12.9863 16.0964 13.0012 16.0964C13.0161 16.0964 13.0303 16.1023 13.0409 16.1128L14.4835 17.5554C14.5036 17.5755 14.5309 17.5868 14.5593 17.5868C14.5878 17.5868 14.615 17.5755 14.6352 17.5554L17.0847 15.1058C17.1048 15.0857 17.1161 15.0584 17.1161 15.03C17.1161 15.0015 17.1048 14.9743 17.0847 14.9541Z" fill="url(#paint1_linear_395_10)"/>
<defs>
<linearGradient id="paint0_linear_395_10" x1="25.9727" y1="0.499999" x2="-8.82589" y2="24.9278" gradientUnits="userSpaceOnUse">
<stop stop-color="#FFA026"/>
<stop offset="1" stop-color="#F7620C"/>
</linearGradient>
<linearGradient id="paint1_linear_395_10" x1="25.9726" y1="0.500418" x2="-8.82595" y2="24.9282" gradientUnits="userSpaceOnUse">
<stop stop-color="#FFA026"/>
<stop offset="1" stop-color="#F7620C"/>
</linearGradient>
</defs>
</svg>
