<svg width="192" height="56" viewBox="0 0 192 56" fill="none" xmlns="http://www.w3.org/2000/svg">
<path d="M5.11051 26.0763L0.74349 21.7093C0.276812 21.2426 0.0146273 20.6097 0.0146311 19.9497C0.0146272 19.2897 0.276807 18.6567 0.74349 18.1901L17.7162 1.21738C18.1828 0.750705 18.8158 0.488527 19.4758 0.488527C20.1358 0.488527 20.7687 0.750705 21.2354 1.21738L38.2081 18.19C38.4391 18.4211 38.6224 18.6955 38.7475 18.9974C38.8725 19.2993 38.9369 19.6229 38.9369 19.9497C38.9369 20.2765 38.8725 20.6 38.7475 20.902C38.6224 21.2039 38.4391 21.4782 38.2081 21.7093L21.2354 38.682C21.0043 38.9131 20.7299 39.0964 20.4279 39.2214C20.1259 39.3465 19.8023 39.4108 19.4754 39.4108C19.1486 39.4108 18.825 39.3463 18.523 39.2212C18.2211 39.0961 17.9468 38.9127 17.7157 38.6815L13.3657 34.3315C13.3356 34.3014 13.3186 34.2604 13.3186 34.2178C13.3186 34.1751 13.3356 34.1342 13.3657 34.104L17.0409 30.4289C17.071 30.3987 17.112 30.3817 17.1546 30.3817C17.1973 30.3817 17.2382 30.3987 17.2684 30.4289L19.4162 32.5766C19.432 32.5924 19.4534 32.6012 19.4758 32.6012C19.4981 32.6012 19.5196 32.5924 19.5354 32.5766L32.1027 20.0093C32.1185 19.9935 32.1273 19.972 32.1273 19.9497C32.1273 19.9273 32.1185 19.9059 32.1027 19.89L19.5354 7.32274C19.5196 7.30697 19.4981 7.29811 19.4758 7.29811C19.4534 7.29811 19.432 7.30697 19.4161 7.32274L6.84884 19.89C6.83307 19.9059 6.82422 19.9273 6.82422 19.9497C6.82422 19.972 6.83307 19.9935 6.84884 20.0093L9.01318 22.1736C9.04336 22.2038 9.06031 22.2447 9.06031 22.2874C9.06031 22.3301 9.04336 22.371 9.01318 22.4012L5.33806 26.0763C5.30789 26.1065 5.26696 26.1234 5.22428 26.1234C5.18161 26.1234 5.14068 26.1065 5.11051 26.0763Z" fill="white"/>
<path d="M25.6479 22.1736L21.2809 17.8066C20.8142 17.3399 20.1813 17.0778 19.5213 17.0778C18.8613 17.0778 18.2283 17.3399 17.7617 17.8066L0.789001 34.7793C0.322322 35.246 0.0601418 35.8789 0.0601419 36.5389C0.0601419 37.1989 0.322322 37.8318 0.789001 38.2985L17.7617 55.2712C18.2283 55.7379 18.8613 56 19.5213 56C20.1813 56 20.8142 55.7379 21.2809 55.2712L38.2536 38.2985C38.4847 38.0674 38.668 37.793 38.7931 37.491C38.9181 37.1891 38.9825 36.8654 38.9824 36.5386C38.9824 36.2117 38.918 35.8881 38.7928 35.5861C38.6677 35.2842 38.4843 35.0099 38.2531 34.7788L33.9032 30.4289C33.873 30.3987 33.8321 30.3817 33.7894 30.3817C33.7467 30.3817 33.7058 30.3987 33.6756 30.4289L30.0005 34.104C29.9703 34.1342 29.9534 34.1751 29.9534 34.2178C29.9534 34.2604 29.9703 34.3014 30.0005 34.3315L32.1482 36.4793C32.164 36.4951 32.1728 36.5165 32.1728 36.5389C32.1728 36.5612 32.164 36.5827 32.1482 36.5985L19.5809 49.1658C19.5651 49.1816 19.5436 49.1904 19.5213 49.1904C19.4989 49.1904 19.4775 49.1816 19.4617 49.1658L6.89436 36.5985C6.87859 36.5827 6.86973 36.5612 6.86973 36.5389C6.86973 36.5165 6.87859 36.4951 6.89436 36.4793L19.4617 23.912C19.4775 23.8962 19.4989 23.8873 19.5213 23.8873C19.5436 23.8873 19.5651 23.8962 19.5809 23.912L21.7452 26.0763C21.7754 26.1065 21.8163 26.1234 21.859 26.1234C21.9017 26.1234 21.9426 26.1065 21.9728 26.0763L25.6479 22.4012C25.6781 22.371 25.695 22.3301 25.695 22.2874C25.695 22.2447 25.6781 22.2038 25.6479 22.1736Z" fill="white"/>
<path d="M64.0337 23.475C63.9527 22.6585 63.6052 22.0241 62.991 21.572C62.3769 21.1198 61.5435 20.8937 60.4907 20.8937C59.7753 20.8937 59.1714 20.9949 58.6787 21.1974C58.1861 21.3931 57.8081 21.6664 57.5449 22.0174C57.2885 22.3683 57.1603 22.7664 57.1603 23.2119C57.1468 23.583 57.2244 23.907 57.3931 24.1836C57.5686 24.4603 57.8081 24.6999 58.1118 24.9024C58.4155 25.0981 58.7664 25.2702 59.1646 25.4186C59.5628 25.5603 59.9879 25.6818 60.4401 25.7831L62.3027 26.2285C63.207 26.4309 64.0371 26.7009 64.7929 27.0383C65.5487 27.3757 66.2033 27.7907 66.7567 28.2834C67.3101 28.776 67.7386 29.3564 68.0423 30.0245C68.3528 30.6926 68.5114 31.4586 68.5181 32.3224C68.5114 33.5911 68.1874 34.6911 67.5463 35.6224C66.9119 36.547 65.9941 37.2657 64.7929 37.7786C63.5984 38.2848 62.1576 38.5378 60.4704 38.5378C58.7968 38.5378 57.3391 38.2814 56.0974 37.7685C54.8624 37.2556 53.8974 36.4964 53.2023 35.4909C52.5139 34.4786 52.1529 33.2267 52.1191 31.7353H56.3606C56.4078 32.4304 56.6069 33.0108 56.9578 33.4764C57.3155 33.9353 57.7913 34.2829 58.3851 34.5191C58.9858 34.7485 59.664 34.8632 60.4198 34.8632C61.1622 34.8632 61.8067 34.7553 62.3533 34.5393C62.9067 34.3234 63.3352 34.023 63.6389 33.6384C63.9426 33.2537 64.0944 32.8117 64.0944 32.3123C64.0944 31.8466 63.9561 31.4552 63.6794 31.138C63.4094 30.8208 63.0113 30.5509 62.4849 30.3282C61.9653 30.1055 61.3275 29.903 60.5717 29.7208L58.3143 29.154C56.5664 28.7288 55.1863 28.0641 54.174 27.1598C53.1618 26.2554 52.659 25.0373 52.6657 23.5054C52.659 22.2502 52.993 21.1535 53.6679 20.2155C54.3495 19.2774 55.2842 18.5452 56.4719 18.0188C57.6597 17.4924 59.0094 17.2293 60.5211 17.2293C62.0597 17.2293 63.4027 17.4924 64.55 18.0188C65.704 18.5452 66.6015 19.2774 67.2426 20.2155C67.8837 21.1535 68.2144 22.2401 68.2347 23.475H64.0337ZM75.8192 38.5378C74.8272 38.5378 73.9431 38.3657 73.167 38.0216C72.3909 37.6706 71.7768 37.1544 71.3247 36.4728C70.8793 35.7844 70.6566 34.9273 70.6566 33.9016C70.6566 33.0378 70.8151 32.3123 71.1323 31.7252C71.4495 31.138 71.8814 30.6656 72.428 30.308C72.9747 29.9503 73.5955 29.6803 74.2907 29.4981C74.9925 29.3159 75.7281 29.1877 76.4974 29.1135C77.4017 29.019 78.1306 28.9313 78.684 28.8503C79.2373 28.7625 79.6389 28.6343 79.8886 28.4656C80.1383 28.2969 80.2631 28.0472 80.2631 27.7165V27.6558C80.2631 27.0147 80.0607 26.5186 79.6558 26.1677C79.2576 25.8168 78.6907 25.6413 77.9551 25.6413C77.179 25.6413 76.5615 25.8134 76.1026 26.1576C75.6437 26.495 75.3401 26.9202 75.1916 27.4331L71.2032 27.1091C71.4056 26.1643 71.8038 25.3478 72.3977 24.6594C72.9916 23.9643 73.7575 23.4312 74.6956 23.06C75.6404 22.6821 76.7336 22.4931 77.9754 22.4931C78.8392 22.4931 79.6659 22.5944 80.4555 22.7968C81.2518 22.9993 81.957 23.3131 82.5711 23.7382C83.192 24.1634 83.6813 24.71 84.0389 25.3781C84.3966 26.0395 84.5755 26.8325 84.5755 27.757V38.2443H80.4858V36.0881H80.3644C80.1147 36.574 79.7806 37.0025 79.3622 37.3737C78.9438 37.7381 78.441 38.0249 77.8539 38.2341C77.2668 38.4366 76.5885 38.5378 75.8192 38.5378ZM77.0542 35.5617C77.6885 35.5617 78.2487 35.4369 78.7346 35.1872C79.2205 34.9307 79.6018 34.5865 79.8785 34.1546C80.1551 33.7227 80.2935 33.2335 80.2935 32.6868V31.0368C80.1585 31.1245 79.9729 31.2055 79.7367 31.2798C79.5073 31.3472 79.2475 31.4113 78.9573 31.4721C78.6671 31.5261 78.3769 31.5767 78.0867 31.6239C77.7965 31.6644 77.5333 31.7015 77.2971 31.7353C76.791 31.8095 76.349 31.9276 75.971 32.0896C75.5931 32.2515 75.2996 32.4709 75.0904 32.7476C74.8811 33.0175 74.7765 33.3549 74.7765 33.7598C74.7765 34.347 74.9891 34.7957 75.4143 35.1062C75.8462 35.4099 76.3928 35.5617 77.0542 35.5617ZM96.1914 22.6956V25.9349H86.8278V22.6956H96.1914ZM88.9536 18.9704H93.2659V33.4663C93.2659 33.8644 93.3266 34.1749 93.4481 34.3976C93.5696 34.6135 93.7383 34.7654 93.9543 34.8531C94.177 34.9408 94.4334 34.9847 94.7236 34.9847C94.9261 34.9847 95.1285 34.9678 95.331 34.9341C95.5334 34.8936 95.6886 34.8632 95.7966 34.843L96.4748 38.0519C96.2589 38.1194 95.9552 38.197 95.5638 38.2848C95.1724 38.3792 94.6966 38.4366 94.1365 38.4568C93.0972 38.4973 92.1861 38.359 91.4033 38.0418C90.6272 37.7246 90.0232 37.232 89.5913 36.5639C89.1594 35.8958 88.9468 35.0522 88.9536 34.0332V18.9704ZM105.859 38.5479C104.286 38.5479 102.926 38.2139 101.779 37.5458C100.639 36.8709 99.758 35.9329 99.1372 34.7316C98.5163 33.5236 98.2059 32.1233 98.2059 30.5307C98.2059 28.9245 98.5163 27.5208 99.1372 26.3196C99.758 25.1116 100.639 24.1735 101.779 23.5054C102.926 22.8306 104.286 22.4931 105.859 22.4931C107.431 22.4931 108.788 22.8306 109.928 23.5054C111.075 24.1735 111.959 25.1116 112.58 26.3196C113.201 27.5208 113.512 28.9245 113.512 30.5307C113.512 32.1233 113.201 33.5236 112.58 34.7316C111.959 35.9329 111.075 36.8709 109.928 37.5458C108.788 38.2139 107.431 38.5479 105.859 38.5479ZM105.879 35.2074C106.594 35.2074 107.192 35.005 107.671 34.6C108.15 34.1884 108.511 33.6282 108.754 32.9197C109.004 32.2111 109.128 31.4046 109.128 30.5003C109.128 29.596 109.004 28.7895 108.754 28.0809C108.511 27.3723 108.15 26.8122 107.671 26.4005C107.192 25.9889 106.594 25.7831 105.879 25.7831C105.157 25.7831 104.549 25.9889 104.057 26.4005C103.571 26.8122 103.203 27.3723 102.953 28.0809C102.711 28.7895 102.589 29.596 102.589 30.5003C102.589 31.4046 102.711 32.2111 102.953 32.9197C103.203 33.6282 103.571 34.1884 104.057 34.6C104.549 35.005 105.157 35.2074 105.879 35.2074ZM123.341 38.5479C121.748 38.5479 120.378 38.2105 119.231 37.5357C118.09 36.8541 117.213 35.9093 116.599 34.7013C115.992 33.4933 115.688 32.1031 115.688 30.5307C115.688 28.938 115.995 27.5411 116.609 26.3398C117.23 25.1318 118.111 24.1904 119.251 23.5155C120.392 22.8339 121.748 22.4931 123.321 22.4931C124.677 22.4931 125.865 22.7395 126.884 23.2321C127.903 23.7247 128.709 24.4165 129.303 25.3073C129.897 26.1981 130.224 27.2441 130.285 28.4454H126.216C126.101 27.6693 125.797 27.045 125.305 26.5726C124.819 26.0935 124.181 25.8539 123.391 25.8539C122.723 25.8539 122.14 26.0361 121.64 26.4005C121.148 26.7582 120.763 27.2812 120.486 27.9696C120.21 28.6579 120.071 29.4914 120.071 30.4699C120.071 31.462 120.206 32.3055 120.476 33.0006C120.753 33.6957 121.141 34.2255 121.64 34.5899C122.14 34.9543 122.723 35.1366 123.391 35.1366C123.884 35.1366 124.326 35.0353 124.718 34.8329C125.116 34.6304 125.443 34.3368 125.699 33.9522C125.963 33.5608 126.135 33.0917 126.216 32.5451H130.285C130.218 33.7329 129.894 34.7789 129.313 35.6832C128.74 36.5807 127.947 37.2826 126.934 37.7887C125.922 38.2949 124.724 38.5479 123.341 38.5479ZM137.358 29.2552V38.2443H133.046V17.5127H137.237V25.4389H137.419C137.77 24.5211 138.337 23.8023 139.12 23.2827C139.903 22.7563 140.885 22.4931 142.066 22.4931C143.145 22.4931 144.087 22.7293 144.89 23.2017C145.7 23.6674 146.327 24.3389 146.773 25.2162C147.225 26.0867 147.448 27.1294 147.441 28.3441V38.2443H143.128V29.1135C143.135 28.1552 142.892 27.4095 142.4 26.8763C141.914 26.3432 141.232 26.0766 140.355 26.0766C139.768 26.0766 139.248 26.2015 138.796 26.4512C138.35 26.7009 138 27.0653 137.743 27.5444C137.493 28.0168 137.365 28.5871 137.358 29.2552ZM155.268 38.5378C154.276 38.5378 153.392 38.3657 152.616 38.0216C151.84 37.6706 151.226 37.1544 150.774 36.4728C150.328 35.7844 150.106 34.9273 150.106 33.9016C150.106 33.0378 150.264 32.3123 150.581 31.7252C150.899 31.138 151.33 30.6656 151.877 30.308C152.424 29.9503 153.045 29.6803 153.74 29.4981C154.442 29.3159 155.177 29.1877 155.947 29.1135C156.851 29.019 157.58 28.9313 158.133 28.8503C158.686 28.7625 159.088 28.6343 159.338 28.4656C159.587 28.2969 159.712 28.0472 159.712 27.7165V27.6558C159.712 27.0147 159.51 26.5186 159.105 26.1677C158.707 25.8168 158.14 25.6413 157.404 25.6413C156.628 25.6413 156.011 25.8134 155.552 26.1576C155.093 26.495 154.789 26.9202 154.641 27.4331L150.652 27.1091C150.855 26.1643 151.253 25.3478 151.847 24.6594C152.441 23.9643 153.207 23.4312 154.145 23.06C155.089 22.6821 156.183 22.4931 157.424 22.4931C158.288 22.4931 159.115 22.5944 159.905 22.7968C160.701 22.9993 161.406 23.3131 162.02 23.7382C162.641 24.1634 163.13 24.71 163.488 25.3781C163.846 26.0395 164.025 26.8325 164.025 27.757V38.2443H159.935V36.0881H159.813C159.564 36.574 159.23 37.0025 158.811 37.3737C158.393 37.7381 157.89 38.0249 157.303 38.2341C156.716 38.4366 156.038 38.5378 155.268 38.5378ZM156.503 35.5617C157.138 35.5617 157.698 35.4369 158.184 35.1872C158.67 34.9307 159.051 34.5865 159.328 34.1546C159.604 33.7227 159.743 33.2335 159.743 32.6868V31.0368C159.608 31.1245 159.422 31.2055 159.186 31.2798C158.956 31.3472 158.697 31.4113 158.406 31.4721C158.116 31.5261 157.826 31.5767 157.536 31.6239C157.246 31.6644 156.982 31.7015 156.746 31.7353C156.24 31.8095 155.798 31.9276 155.42 32.0896C155.042 32.2515 154.749 32.4709 154.539 32.7476C154.33 33.0175 154.226 33.3549 154.226 33.7598C154.226 34.347 154.438 34.7957 154.863 35.1062C155.295 35.4099 155.842 35.5617 156.503 35.5617ZM167.37 38.2443V22.6956H171.682V38.2443H167.37ZM169.536 20.6913C168.895 20.6913 168.345 20.4787 167.886 20.0535C167.434 19.6216 167.208 19.1054 167.208 18.5047C167.208 17.9109 167.434 17.4013 167.886 16.9762C168.345 16.5443 168.895 16.3283 169.536 16.3283C170.178 16.3283 170.724 16.5443 171.176 16.9762C171.635 17.4013 171.865 17.9109 171.865 18.5047C171.865 19.1054 171.635 19.6216 171.176 20.0535C170.724 20.4787 170.178 20.6913 169.536 20.6913ZM179.449 29.2552V38.2443H175.137V22.6956H179.247V25.4389H179.429C179.773 24.5346 180.35 23.8192 181.16 23.2928C181.97 22.7597 182.952 22.4931 184.106 22.4931C185.185 22.4931 186.127 22.7293 186.93 23.2017C187.733 23.6741 188.357 24.349 188.803 25.2263C189.248 26.0969 189.471 27.1361 189.471 28.3441V38.2443H185.158V29.1135C185.165 28.1619 184.922 27.4196 184.43 26.8864C183.937 26.3466 183.259 26.0766 182.395 26.0766C181.815 26.0766 181.302 26.2015 180.856 26.4512C180.418 26.7009 180.073 27.0653 179.824 27.5444C179.581 28.0168 179.456 28.5871 179.449 29.2552Z" fill="white"/>
</svg>
